Format                           : AVI
Format/Info                      : Audio Video Interleave
File size                        : 1.64 GiB
Duration                         : 2h 11mn
Overall bit rate                 : 1 792 Kbps
Writing application              : VirtualDubMod 1.5.4.1 (build 2178/release)
Writing library                  : VirtualDubMod build 2178/release

Video
ID                               : 0
Format                           : MPEG-4 Visual
Format profile                   : Simple@L0
Format settings, BVOP            : No
Format settings, QPel            : No
Format settings, GMC             : No warppoints
Format settings, Matrix          : Default (H.263)
Codec ID                         : XVID
Codec ID/Hint                    : XviD
Duration                         : 2h 11mn
Bit rate                         : 1 400 Kbps
Width                            : 608 pixels
Height                           : 384 pixels
Display aspect ratio             : 1.583
Frame rate                       : 25.000 fps
Color space                      : YUV
Chroma subsampling               : 4:2:0
Bit depth                        : 8 bits
Scan type                        : Progressive
Compression mode                 : Lossy
Bits/(Pixel*Frame)               : 0.240
Stream size                      : 1.28 GiB (78%)
Writing library                  : XviD 1.2.0.dev47 (UTC 2006-11-01)

Audio
ID                               : 1
Format                           : AC-3
Format/Info                      : Audio Coding 3
Mode extension                   : CM (complete main)
Codec ID                         : 2000
Duration                         : 2h 11mn
Bit rate mode                    : Constant
Bit rate                         : 384 Kbps
Channel(s)                       : 6 channels
Channel positions                : Front: L C R, Side: L R, LFE
Sampling rate                    : 48.0 KHz
Bit depth                        : 16 bits
Compression mode                 : Lossy
Delay relative to video          : 8ms
Stream size                      : 360 MiB (21%)
Alignment                        : Split accross interleaves
Interleave, duration             : 80 ms (2.00 video frames)
Interleave, preload duration     : 500 ms
Language                         : Spanish
